<svg width="400" height="400" viewBox="0 0 400 400" xmlns="http://www.w3.org/2000/svg">
  <defs>
    <linearGradient id="bgGradient" x1="0%" y1="0%" x2="100%" y2="100%">
      <stop offset="0%" style="stop-color:#059855;stop-opacity:1" />
      <stop offset="100%" style="stop-color:#22c55e;stop-opacity:1" />
    </linearGradient>
  </defs>
  <rect width="400" height="400" fill="url(#bgGradient)"/>
  <g transform="translate(200, 150)">
    <path d="M-60,-20 L-40,-20 L-40,-40 L20,-40 L20,-20 L40,-20 L40,0 L20,0 L20,20 L-40,20 L-40,0 L-60,0 Z" fill="white" opacity="0.9"/>
    <circle cx="30" cy="15" r="15" fill="none" stroke="white" stroke-width="3" opacity="0.9"/>
    <circle cx="-30" cy="15" r="20" fill="none" stroke="white" stroke-width="3" opacity="0.9"/>
    <rect x="-20" y="-40" width="25" height="25" fill="white" opacity="0.7"/>
  </g>
  <text x="200" y="280" text-anchor="middle" fill="white" font-family="Arial, sans-serif" font-size="32" font-weight="bold">FUTURE</text>
  <text x="200" y="320" text-anchor="middle" fill="white" font-family="Arial, sans-serif" font-size="32" font-weight="bold">FARMING</text>
  <g transform="translate(350, 50)">
    <rect x="-8" y="-15" width="16" height="25" rx="8" fill="white" opacity="0.8"/>
    <rect x="-12" y="15" width="24" height="8" rx="4" fill="white" opacity="0.8"/>
    <line x1="0" y1="23" x2="0" y2="35" stroke="white" stroke-width="3" opacity="0.8"/>
  </g>
</svg>
