<svg width="400" height="400" viewBox="0 0 400 400" xmlns="http://www.w3.org/2000/svg">
  <defs>
    <linearGradient id="bgGradient3" x1="0%" y1="0%" x2="100%" y2="100%">
      <stop offset="0%" style="stop-color:#3b82f6;stop-opacity:1" />
      <stop offset="100%" style="stop-color:#1d4ed8;stop-opacity:1" />
    </linearGradient>
  </defs>
  <rect width="400" height="400" fill="url(#bgGradient3)"/>
  <g transform="translate(200, 200)">
    <path d="M-80,-40 L-40,-60 L0,-20 L40,-50 L80,-10" stroke="white" stroke-width="6" fill="none" opacity="0.9"/>
    <circle cx="-80" cy="-40" r="8" fill="white"/>
    <circle cx="-40" cy="-60" r="8" fill="white"/>
    <circle cx="0" cy="-20" r="8" fill="white"/>
    <circle cx="40" cy="-50" r="8" fill="white"/>
    <circle cx="80" cy="-10" r="8" fill="white"/>
    <path d="M-80,40 L-60,30 L-40,50 L-20,35 L0,45 L20,25 L40,35 L60,20 L80,30" stroke="white" stroke-width="4" fill="none" opacity="0.7"/>
    <rect x="-90" y="60" width="180" height="4" fill="white" opacity="0.6"/>
    <rect x="-90" y="70" width="180" height="2" fill="white" opacity="0.4"/>
  </g>
  <text x="200" y="320" text-anchor="middle" fill="white" font-family="Arial, sans-serif" font-size="32" font-weight="bold">MARKET</text>
  <text x="200" y="355" text-anchor="middle" fill="white" font-family="Arial, sans-serif" font-size="32" font-weight="bold">TRENDS 2025</text>
  <g transform="translate(350, 50)">
    <rect x="-8" y="-15" width="16" height="25" rx="8" fill="white" opacity="0.8"/>
    <rect x="-12" y="15" width="24" height="8" rx="4" fill="white" opacity="0.8"/>
    <line x1="0" y1="23" x2="0" y2="35" stroke="white" stroke-width="3" opacity="0.8"/>
  </g>
</svg>
