<svg width="400" height="400" viewBox="0 0 400 400" xmlns="http://www.w3.org/2000/svg">
  <defs>
    <linearGradient id="bgGradient4" x1="0%" y1="0%" x2="100%" y2="100%">
      <stop offset="0%" style="stop-color:#06b6d4;stop-opacity:1" />
      <stop offset="100%" style="stop-color:#0891b2;stop-opacity:1" />
    </linearGradient>
  </defs>
  <rect width="400" height="400" fill="url(#bgGradient4)"/>
  <g transform="translate(200, 200)">
    <rect x="-60" y="-40" width="120" height="80" rx="10" fill="white" opacity="0.9"/>
    <rect x="-50" y="-30" width="100" height="60" rx="5" fill="#06b6d4" opacity="0.7"/>
    <circle cx="-30" cy="-10" r="8" fill="white"/>
    <circle cx="0" cy="-10" r="8" fill="white"/>
    <circle cx="30" cy="-10" r="8" fill="white"/>
    <path d="M-30,10 Q-30,20 -35,30 Q-30,40 -25,30 Q-30,20 -30,10" fill="white" opacity="0.8"/>
    <path d="M0,10 Q0,20 -5,30 Q0,40 5,30 Q0,20 0,10" fill="white" opacity="0.8"/>
    <path d="M30,10 Q30,20 25,30 Q30,40 35,30 Q30,20 30,10" fill="white" opacity="0.8"/>
    <rect x="-80" y="50" width="20" height="8" fill="white" opacity="0.7"/>
    <rect x="-20" y="55" width="40" height="8" fill="white" opacity="0.7"/>
    <rect x="60" y="50" width="20" height="8" fill="white" opacity="0.7"/>
  </g>
  <text x="200" y="320" text-anchor="middle" fill="white" font-family="Arial, sans-serif" font-size="28" font-weight="bold">SMART</text>
  <text x="200" y="355" text-anchor="middle" fill="white" font-family="Arial, sans-serif" font-size="28" font-weight="bold">IRRIGATION</text>
  <g transform="translate(50, 50)">
    <rect x="-8" y="-15" width="16" height="25" rx="8" fill="white" opacity="0.8"/>
    <rect x="-12" y="15" width="24" height="8" rx="4" fill="white" opacity="0.8"/>
    <line x1="0" y1="23" x2="0" y2="35" stroke="white" stroke-width="3" opacity="0.8"/>
  </g>
</svg>
