<svg width="400" height="400" viewBox="0 0 400 400" xmlns="http://www.w3.org/2000/svg">
  <defs>
    <linearGradient id="bgGradient2" x1="0%" y1="0%" x2="100%" y2="100%">
      <stop offset="0%" style="stop-color:#22c55e;stop-opacity:1" />
      <stop offset="100%" style="stop-color:#16a34a;stop-opacity:1" />
    </linearGradient>
  </defs>
  <rect width="400" height="400" fill="url(#bgGradient2)"/>
  <g transform="translate(200, 180)">
    <path d="M0,-50 Q-20,-30 -25,0 Q-20,30 0,50 Q20,30 25,0 Q20,-30 0,-50" fill="white" opacity="0.9"/>
    <path d="M-10,-20 Q0,-30 10,-20 Q15,0 10,20 Q0,30 -10,20 Q-15,0 -10,-20" fill="#22c55e" opacity="0.8"/>
    <circle cx="-40" cy="-10" r="8" fill="white" opacity="0.7"/>
    <circle cx="40" cy="10" r="6" fill="white" opacity="0.7"/>
    <circle cx="-30" cy="30" r="5" fill="white" opacity="0.6"/>
    <circle cx="35" cy="-25" r="7" fill="white" opacity="0.6"/>
  </g>
  <text x="200" y="320" text-anchor="middle" fill="white" font-family="Arial, sans-serif" font-size="28" font-weight="bold">SUSTAINABLE</text>
  <text x="200" y="355" text-anchor="middle" fill="white" font-family="Arial, sans-serif" font-size="28" font-weight="bold">AGRICULTURE</text>
  <g transform="translate(50, 50)">
    <rect x="-8" y="-15" width="16" height="25" rx="8" fill="white" opacity="0.8"/>
    <rect x="-12" y="15" width="24" height="8" rx="4" fill="white" opacity="0.8"/>
    <line x1="0" y1="23" x2="0" y2="35" stroke="white" stroke-width="3" opacity="0.8"/>
  </g>
</svg>
